<?xml version="1.0" encoding="utf-8"?>
<!-- Generator: Adobe Illustrator 28.2.0, SVG Export Plug-In . SVG Version: 6.00 Build 0)  -->
<svg version="1.1" id="图层_1" xmlns="http://www.w3.org/2000/svg" xmlns:xlink="http://www.w3.org/1999/xlink" x="0px" y="0px"
	 viewBox="0 0 200 200" style="enable-background:new 0 0 200 200;" xml:space="preserve">
<style type="text/css">
	.st0{fill:#0F4F9A;}
</style>
<path class="st0" d="M142.5,138.8c0-5-1.3-8.8-1.3-11.2c3.8-23.7,3.8-23.7-21.2-23.7c-5,0-11.2-1.3-15,5c0,1.3-6.2,0-6.2,0
	c-2.5-7.5-7.5-6.2-11.2-6.2c-6.2,0-11.2-1.2-17.5,0c-5,1.3-8.7,6.2-13.8,6.2s-8.8-3.8-13.7-6.2h-5c-10,0-10,0-8.8,10
	c1.2,6.2,3.8,15-6.2,16.2c-8.8,1.2-8.8-8.8-8.8-13.8C7.5,70,25,35,62.5,15c35-17.5,78.8-8.8,105,17.5c32.5,32.5,35,95,6.2,127.5
	c-26.3,30-75,36.2-106.3,12.5c-5-3.8-7.5-3.8-11.2,1.2c-5,5-10,7.5-16.2,13.8c-1.2-5-1.2-8.8-1.2-11.2v-48.8c0-6.2,2.5-7.5,7.5-7.5
	h52.5c2.5,0,3.8,1.2,6.2,2.5c-1.2,1.3-1.2,2.5-2.5,5c-1.2,2.5-3.8,3.8-6.2,6.2c-7.5,7.5-7.5,8.8,2.5,13.8c15,7.5,31.3,8.8,47.5,3.8
	c20-6.2,30-20,32.5-40c0-2.5-2.5-5-5-6.2h-1.3c-17.5-1.3-16.2-1.3-20,15C151.2,125,152.5,132.5,142.5,138.8L142.5,138.8z M171.2,150
	c-1.2,0-1.2-1.2-2.5-1.2c-6.2,3.8-12.5,6.2-20,10c-25,10-47.5,5-67.5-10c-5-3.8-6.2-7.5-1.2-12.5c2.5-1.3,3.8-3.8,6.2-7.5H50
	c-1.2,0-3.8,2.5-3.8,3.8v36.2c3.8-3.8,6.2-5,7.5-6.2c5-5,8.7-5,13.7,0c23.8,21.2,60,23.8,86.2,5C161.2,161.2,166.2,155,171.2,150z
	 M80,93.8h6.2c11.2,0,11.2,0,11.2-11.2V71.2c1.2-8.8-1.2-12.5-10-13.8C66.2,53.7,66.2,53.7,63.8,75C60,97.5,60,93.8,80,93.8z
	 M126.3,93.8h8.7c7.5,0,10-2.5,8.8-10c-1.2-5-1.2-11.2-2.5-16.3c-2.5-15-2.5-15-17.5-12.5c-16.2,5-16.2,5-16.2,21.2
	C107.5,96.2,105,93.7,126.3,93.8z M167.5,93.8c3.8-1.2,12.5,3.8,11.2-7.5c-2.5-15-7.5-28.7-17.5-40c-1.2-2.5-6.2-2.5-8.7-2.5
	c-5,1.2-5,5-3.8,8.7c2.5,8.8,3.8,18.8,5,27.5C153.8,92.5,152.5,93.7,167.5,93.8z M38.8,92.5c12.5,0,12.5,0,13.7-12.5
	c2.5-8.8,5-17.5,5-26.2c0-2.5-1.2-7.5-3.8-8.8c-2.5-1.2-7.5,0-8.8,2.5c-6.2,10-12.5,21.2-16.2,32.5C25,92.5,26.2,92.5,38.8,92.5z
	 M98.8,36.2C98.8,35,98.8,35,98.8,36.2c-1.2-2.5,0-3.8-1.2-6.2c0-2.5-1.2-5-2.5-8.8c-2.5,2.5-6.2,2.5-8.8,3.8
	c-3.8,3.8-7.5,8.8-10,12.5C75,40,76.3,45,77.5,45c6.2,1.2,12.5,3.8,17.5,2.5C97.5,47.5,97.5,40,98.8,36.2z M107.5,35v6.2
	c0,6.2,2.5,8.7,7.5,6.2c5-1.2,10-3.8,15-6.2c-1.2-3.8-3.7-8.8-7.5-12.5c-2.5-2.5-8.7-3.7-12.5-6.2C108.8,26.3,108.8,30,107.5,35z"/>
</svg>
