<?xml version="1.0" encoding="utf-8"?>
<!-- Generator: Adobe Illustrator 28.2.0, SVG Export Plug-In . SVG Version: 6.00 Build 0)  -->
<svg version="1.1" id="图层_1" xmlns="http://www.w3.org/2000/svg" xmlns:xlink="http://www.w3.org/1999/xlink" x="0px" y="0px"
	 viewBox="0 0 200 163.7" style="enable-background:new 0 0 200 163.7;" xml:space="preserve">
<style type="text/css">
	.st0{fill:#0F4F9A;}
</style>
<path class="st0" d="M120,81.8c-3.5,0-7,3.3-7,7.3c0,3.3,3.5,6.6,7,6.6c5.2,0,9-3.3,9-6.6C129,85,125.3,81.8,120,81.8 M97.1,47.8
	c5.5,0,9-3.5,9-8.8c0-5.5-3.5-8.8-9-8.8c-5.2,0-10.2,3.3-10.2,8.8C86.8,44.3,91.8,47.8,97.1,47.8 M70.9,121c-9.2,0-16-1.5-24.7-4
	L21,129.8l7.2-21.6C10.5,95.6,0,79.8,0,60.4C0,26.2,31.9,0,70.9,0C105.3,0,136,20.6,142,49.8c-2.2-0.5-4.5-0.7-6.7-0.8
	c-33.9,0-60.1,25.7-60.1,56.6c0,5.3,0.7,10.1,2,15.1C75.1,121,72.9,121,70.9,121 M174.9,145.7l5,18.1L161,153
	c-7.2,1.5-14.2,3.8-21.5,3.8c-33.4,0-59.9-23.1-59.9-51.8c0-28.7,26.5-51.8,59.9-51.8c31.7,0,60.1,23.1,60.1,51.8
	C199.6,121,188.9,135.3,174.9,145.7 M47.7,30.2c-5.2,0-10.7,3.3-10.7,8.8c0,5.3,5.5,8.8,10.7,8.8c5,0,9-3.5,9-8.8
	C56.6,33.5,52.6,30.2,47.7,30.2 M159.2,81.8c-3.7,0-7,3.3-7,7.3c0,3.3,3.2,6.6,7,6.6c5,0,8.7-3.3,8.7-6.6
	C167.9,85,164.2,81.8,159.2,81.8"/>
</svg>
