<?xml version="1.0" encoding="utf-8"?>
<!-- Generator: Adobe Illustrator 28.2.0, SVG Export Plug-In . SVG Version: 6.00 Build 0)  -->
<svg version="1.1" id="图层_1" xmlns="http://www.w3.org/2000/svg" xmlns:xlink="http://www.w3.org/1999/xlink" x="0px" y="0px"
	 viewBox="0 0 200 200" style="enable-background:new 0 0 200 200;" xml:space="preserve">
<style type="text/css">
	.st0{fill:#0F4F9A;}
</style>
<path class="st0" d="M199.6,140V58.7l-42.4,42.4L199.6,140 M128,130.3c-6.9,7-16.3,10.9-26.2,10.8c-9.9,0-19.2-3.8-26.2-10.8
	l-22.8-22.8L4.1,152.3v7.5c0,9.8,8,17.8,17.8,17.8h160c9.8,0,17.8-8,17.8-17.8v-7.8l-48.7-44.6L128,130.3"/>
<path class="st0" d="M182.2,25h-160c-9.8,0-17.7,8-17.7,17.8v3.7l77.9,77.9c5.3,5.3,12.4,8.2,19.9,8.2c7.5,0,14.6-2.9,19.9-8.2
	L200,46.5v-3.7C200,33,192,25,182.2,25 M4.1,58.7v81.6l42.5-39L4.1,58.7"/>
</svg>
