<?xml version="1.0" encoding="utf-8"?>
<!-- Generator: Adobe Illustrator 28.2.0, SVG Export Plug-In . SVG Version: 6.00 Build 0)  -->
<svg version="1.1" id="图层_1" xmlns="http://www.w3.org/2000/svg" xmlns:xlink="http://www.w3.org/1999/xlink" x="0px" y="0px"
	 viewBox="0 0 180 36" style="enable-background:new 0 0 180 36;" xml:space="preserve">
<style type="text/css">
	.st0{fill:#FFFFFF;}
</style>
<g>
	<g>
		<path class="st0" d="M89.21-0.02l-11.3,6.52v0.94c0,0,4.13,1.78,5,4.26c0.87,2.49-0.84,4.33-5,6.69v1.2l11.3-6.04l10.88,6.04v-1.2
			c0,0-5.52-2.1-5.39-5.55c0.13-3.45,5.39-5.14,5.39-5.14V6.54l-10.88,6.04c0,0-5.46-3.04-5.23-6.14s5.26-5.26,5.26-5.26L89.21-0.02
			z"/>
	</g>
	<g>
		<g>
			<g>
				<defs>
					<polygon id="SVGID_1_" points="71.74,33.03 76.41,33.03 76.84,30.73 72.16,30.73 					"/>
				</defs>
				<use xlink:href="#SVGID_1_"  style="overflow:visible;fill:#FFFFFF;"/>
				<clipPath id="SVGID_00000140708539267913779980000017776459410096307607_">
					<use xlink:href="#SVGID_1_"  style="overflow:visible;"/>
				</clipPath>
			</g>
		</g>
		<path class="st0" d="M37,32.04h6.13l-0.11,0.61c-0.09,0.51-0.44,0.9-0.98,0.9h-4.57h-5.39l-0.23,1.31
			c-0.13,0.72,0.16,0.98,1.02,0.98c3.84,0,8.76,0,12.6,0c0.98,0,1.75-0.57,1.87-1.46l0.86-4.63h-0.03h-4.61h-6.13l0.19-1
			c0.06-0.38,0.36-0.82,0.97-0.82c3.98,0,5.97,0,9.95,0l0.16-0.9c0.18-0.97-0.54-1.4-1.43-1.4H35.85c-1.4,0-2.38,0.51-2.63,1.89
			l-0.85,4.51h0.01L37,32.04L37,32.04z"/>
		<polygon class="st0" points="144.26,35.84 140.15,35.84 134.68,29.23 133.45,35.84 128.81,35.84 130.72,25.64 131.65,25.64 
			135.35,25.64 135.6,25.64 		"/>
		<polygon class="st0" points="144.43,34.94 146.19,25.64 141.56,25.64 140.66,30.41 		"/>
		<polygon class="st0" points="116.12,35.84 116.41,35.84 120.76,35.84 128.81,35.84 129.57,33.54 121.18,33.54 122.66,25.64 
			118.02,25.64 		"/>
		<polygon class="st0" points="83.17,35.84 87.81,35.84 88.51,32.05 89.53,32.05 92.84,35.84 98.95,35.84 93.42,30.82 100,25.61 
			94,25.6 89.01,29.77 88.94,29.77 89.71,25.64 85.07,25.64 		"/>
		<path class="st0" d="M81.58,35.84h-4.64c0.01-0.03,0.02-0.05,0.02-0.08c0.25-1.36,1.05-5.65,1.31-7.01
			c0.08-0.38-0.06-0.82-0.67-0.82h-5.05c-0.66,0-0.91,0.31-1.01,0.84l-1.41,7.07h-4.81l1.45-6.96c0.09-0.45,0.18-0.9,0.26-1.35
			c0.26-1.38,1.23-1.89,2.63-1.89c0.88,0,1.76,0,2.65,0c3.69,0,5.79,0,9.47,0c0.89,0,1.61,0.42,1.43,1.4
			C82.67,29.97,82.13,32.9,81.58,35.84L81.58,35.84z"/>
		<path class="st0" d="M100.82,27.93c-0.01,0,0.07-0.36,0.08-0.4c0.26-1.38,1.23-1.89,2.63-1.89c0.78,0,1.57,0,2.35,0
			c2.7,0,3.43,0,6.13,0c0.98,0,1.97,0,2.95,0c0.89,0,1.61,0.42,1.43,1.4l-0.29,1.52c-0.36,1.94-0.72,3.88-1.08,5.82
			c-0.12,0.89-0.89,1.46-1.87,1.46c-4.86,0-7.74,0-12.6,0c-0.86,0-1.16-0.26-1.02-0.98c0.35-1.99,0.74-3.99,1.11-5.98h4.55h0.09
			l-0.71,3.77c-0.1,0.51,0.1,0.9,0.64,0.9c2.23,0,2.34,0,4.57,0c0.5,0,0.78-0.29,0.88-0.71c0.25-1.36,0.51-2.72,0.76-4.09
			c0.08-0.38-0.06-0.82-0.67-0.82C106.79,27.93,104.8,27.93,100.82,27.93L100.82,27.93z"/>
		<polygon class="st0" points="59.27,36.02 63.91,36.02 65.81,25.82 61.18,25.82 60.44,29.75 54.28,29.75 55.01,25.82 50.37,25.82 
			48.47,36.02 53.1,36.02 53.85,32.04 60.02,32.04 		"/>
	</g>
</g>
</svg>
