<?xml version="1.0" encoding="utf-8"?>
<!-- Generator: Adobe Illustrator 28.2.0, SVG Export Plug-In . SVG Version: 6.00 Build 0)  -->
<svg version="1.1" id="图层_1" xmlns="http://www.w3.org/2000/svg" xmlns:xlink="http://www.w3.org/1999/xlink" x="0px" y="0px"
	 viewBox="0 0 200 200" style="enable-background:new 0 0 200 200;" xml:space="preserve">
<style type="text/css">
	.st0{fill:#0F4F9A;}
</style>
<path class="st0" d="M178.1,118.1c-2.4-16.1-3.6-31.9-3.6-47.8c0-15.3,1.1-30.6,3.3-46c-12.5-6.5-25.3-11.2-38-14.3
	c-14.6-3.6-29-5.2-42.6-5.2C83.9,4.8,70,6.4,55.7,9.8C42.9,13,29.8,17.6,16.6,24.1c2.1,15.2,3.1,30.4,3.1,45.5
	c0,15.9-1.1,31.9-3.3,47.8c-0.2,1.7-0.3,3.3-0.3,5c0,18.7,14.2,36,31.1,49.1c17.1,13.2,36.7,22,47.4,23.5c1,0.1,1.9,0.2,2.7,0.2
	c0.8,0,1.8-0.1,2.8-0.2c10.7-1.6,30.3-10.5,47.4-23.7c16.8-13.1,31-30.2,31-48.3C178.4,121.3,178.3,119.7,178.1,118.1L178.1,118.1z
	 M179.3,70.3c0,15.5,1.2,31.1,3.5,47v0c0.3,1.9,0.4,3.7,0.4,5.6c0,19.8-15,38.2-32.9,52.1c-17.7,13.7-38.3,23-49.6,24.7
	c-1.3,0.2-2.4,0.3-3.5,0.3c-1,0-2.1-0.1-3.3-0.3c-11.4-1.6-32-10.7-49.7-24.4c-17.9-13.9-32.9-32.5-32.9-52.9c0-1.9,0.1-3.7,0.4-5.6
	c2.1-15.6,3.2-31.4,3.2-47.2c0-15.5-1.1-31.1-3.2-46.6l-0.2-1.7l1.5-0.8C27,13.6,41,8.5,54.6,5.2C69.3,1.6,83.6,0,97.2,0
	c14,0,28.8,1.6,43.8,5.3c13.6,3.4,27.3,8.4,40.6,15.6l1.5,0.8l-0.2,1.7C180.5,39.2,179.3,54.8,179.3,70.3L179.3,70.3z"/>
<path class="st0" d="M167.4,114.9c-4.1-26.9-4-53,0-79.8c-23.2-12.4-47.9-17.4-70.1-17.4c-21.8,0-45.7,5-70.1,17.1
	c3.7,26.5,3.6,53.1,0,79.5c-5,36.5,53.3,67.8,70.1,67.8C113.9,182.2,172.5,150.3,167.4,114.9z M79.9,52.8c-1.1,3.6-2.2,7-3.4,10.3
	c-1.2,3.3-2.5,6.5-3.9,9.6v63.8h-9V89.9c-1.1,1.7-2.2,3.4-3.3,5c-1.1,1.6-2.3,3.3-3.5,4.9L50.2,92c1.6-2.3,3.4-5.1,5.3-8.3
	c1.9-3.3,3.9-6.8,5.7-10.5c1.9-3.7,3.6-7.6,5.2-11.5c1.6-3.9,2.9-7.7,3.8-11.3C70.3,50.4,79.9,52.8,79.9,52.8z M130.9,85.9H83V54
	h47.9V85.9z M121.5,62.9H92.6V77h28.8L121.5,62.9L121.5,62.9z M114,103.1c3.2,4,7,7.7,11.3,11c4.3,3.3,9.3,6.4,14.9,9.2l-5,9
	c-4.5-3-8.9-6.3-13-9.9c-4.1-3.6-7.9-7.5-11.1-11.7v25.6h-9V111c-1.5,2.1-3,4.1-4.6,6c-1.6,1.9-3.4,3.7-5.3,5.5
	c-1.9,1.8-4.1,3.6-6.4,5.3c-2.3,1.8-4.9,3.5-7.7,5.3l-5.4-8.6c3.2-1.7,6.1-3.3,8.6-4.9c2.6-1.6,4.9-3.3,6.9-5s4-3.5,5.7-5.4
	c1.7-1.9,3.3-3.9,4.7-6H77.9v-8.4h24.2v-7l9,0.4v6.6h25.2v8.4H114z"/>
</svg>
