<?xml version="1.0" encoding="utf-8"?>
<!-- Generator: Adobe Illustrator 28.2.0, SVG Export Plug-In . SVG Version: 6.00 Build 0)  -->
<svg version="1.1" id="图层_1" xmlns="http://www.w3.org/2000/svg" xmlns:xlink="http://www.w3.org/1999/xlink" x="0px" y="0px"
	 viewBox="0 0 200 200" style="enable-background:new 0 0 200 200;" xml:space="preserve">
<style type="text/css">
	.st0{fill:#0F4F9A;}
</style>
<path class="st0" d="M135.7,183.3v-21.4c0-9.2,7.5-16.7,16.7-16.7h14.3c9.2,0,16.7,7.5,16.7,16.7v21.4H135.7z M76.2,183.3v-21.4
	c0-9.2,7.5-16.7,16.7-16.7h14.3c9.2,0,16.7,7.5,16.7,16.7v21.4H76.2z M16.7,183.3v-21.4c0-9.2,7.5-16.7,16.7-16.7h14.3
	c9.2,0,16.7,7.5,16.7,16.7v21.4H16.7z M49,130.6H27.8c-6.1,0-11.1-5-11.1-11.1l0,0V27.8c0-6.1,5-11.1,11.1-11.1h144.4
	c6.1,0,11.1,5,11.1,11.1c0,0,0,0,0,0v91.7c0,6.1-5,11.1-11.1,11.1h0H93.9c2.4-2.2,3.8-5.4,3.7-8.7v1.9l35.7-35.7
	c0,0-2.1-2.8-3.8-2.8c-0.4,0-0.7,0.1-1,0.4l-16.9,16.9l-14.1,14.1V85.7c0-9.7-12-11.9-14.2-11.9c0,0-0.4,0.7-1.2,2.2
	c-2.7,5-8.9,16.9-10.7,16.9c0,0.3,0,0.6,0,0.9c0-0.3,0-0.6,0-0.9c-1.7,0-8-11.8-10.7-16.9c-0.7-1.4-1.2-2.2-1.2-2.2
	c-2.2,0-14.3,2.2-14.3,11.9v35.7C45.1,124.9,46.4,128.2,49,130.6C49,130.6,49,130.6,49,130.6z M59.6,54.4c0,0.1,0,0.3,0,0.4
	c-1.6,1.1-2.5,2.9-2.4,4.8c0.1,0.9,0.5,1.7,1.2,2.3c0.7,0.6,1.2,1.5,1.2,2.5c0.4,3.4,2.2,6.5,5,8.4c2,1.8,4.4,3,6.9,3.5
	c2.6-0.5,5-1.7,6.9-3.5c2.8-1.9,4.7-5,5.1-8.4c0-0.9,0.4-1.8,1.1-2.5c0.6-0.6,1-1.4,1.1-2.3c0.1-1.8-0.7-3.6-2.2-4.8
	c-0.6-6.3-4.6-9.5-12.1-9.5C60.3,45.2,59.8,51.4,59.6,54.4L59.6,54.4z M71.5,130.6L71.5,130.6l0-3.5L71.5,130.6L71.5,130.6z"/>
</svg>
