<?xml version="1.0" encoding="utf-8"?>
<!-- Generator: Adobe Illustrator 28.2.0, SVG Export Plug-In . SVG Version: 6.00 Build 0)  -->
<svg version="1.1" id="图层_1" xmlns="http://www.w3.org/2000/svg" xmlns:xlink="http://www.w3.org/1999/xlink" x="0px" y="0px"
	 viewBox="0 0 200 200" style="enable-background:new 0 0 200 200;" xml:space="preserve">
<style type="text/css">
	.st0{fill:#0F4F9A;}
</style>
<path class="st0" d="M174.6,69.5h-0.3c-7.7-34.8-40-59.4-77-58.7S28.9,37.2,22.6,72.2c-6.9,1.1-11.9,7-11.9,14v28
	c0.2,7.9,6.7,14.2,14.6,14c4.2-0.1,8.2-2,10.9-5.2c6.6,16.5,19.5,29.7,35.9,36.5c0.2-0.4,0.4-0.8,0.7-1.1c0.2-0.3,0.5-0.5,0.8-0.6
	c0.3,0,0.5,0.1,0.7,0.2c-10.9-9.4-18.1-22.3-20.6-36.5c-1-8.7,4.7-16.7,13.2-18.6c12.6-2.3,25-4.8,37.6-7c7.4-1,13.8-5.8,16.7-12.7
	c1.3-3.1,2.1-6.4,2.4-9.8c0.1-0.6,0.6-1.1,1.2-1.2c0.6-0.1,1.2,0.1,1.6,0.6l0.3-0.2c5,7,14.6,22.3,16.2,38.5
	c1.6,18.5,0.7,31.2-13.9,44.2c-0.2,0.2-0.3,0.5-0.3,0.8c0,0.4,0.2,0.7,0.5,0.9h0.9l0.6-0.4c14.8-7.9,25.9-21.1,31.2-37
	c2.2,3.1,5.6,5.3,9.3,6c-6.2,27.3-31.4,44.5-62.6,47.1c-2.3-5.6-8.3-8.8-14.2-7.5c-6.6,1.1-11.1,7.2-10,13.8
	c0.9,5.4,5.2,9.5,10.6,10.1c6,0.9,11.8-2.5,13.8-8.2c36.1-2.8,65.1-23.6,71.1-56c5.4-2.1,9-7.3,9.1-13.1v-28c0-3.8-1.6-7.5-4.4-10.1
	c-2.8-2.7-6.6-4.2-10.5-4.2L174.6,69.5L174.6,69.5z M161.3,77.5C147.4,43,108.2,26.2,73.6,40.1c-17,6.8-30.4,20.2-37.3,37.1
	c-0.5-0.5-1-1.1-1.6-1.5c4.9-30.2,32-52.5,63.8-52.6s59,22,64.2,52.1C162.2,76,161.7,76.7,161.3,77.5z"/>
</svg>
