<?xml version="1.0" encoding="utf-8"?>
<!-- Generator: Adobe Illustrator 28.2.0, SVG Export Plug-In . SVG Version: 6.00 Build 0)  -->
<svg version="1.1" id="图层_1" xmlns="http://www.w3.org/2000/svg" xmlns:xlink="http://www.w3.org/1999/xlink" x="0px" y="0px"
	 viewBox="0 0 200 200" style="enable-background:new 0 0 200 200;" xml:space="preserve">
<style type="text/css">
	.st0{fill:#0F4F9A;}
</style>
<path class="st0" d="M100.4,12.5c-64.3,0-88.1,56.1-88.1,87.5s22.9,88.1,86.2,88.1c0,0,15.8,0.3,15.8-13.9c0-14.2-7.1-9.6-7.1-19.8
	c0-10.2,7.1-14.7,10.5-14.7s25.8,1.7,38.2-3.1c12.5-4.8,32.6-20.1,32.6-46.2C188.4,67.5,164.6,12.5,100.4,12.5L100.4,12.5z
	 M46.6,100.4c-8.5,0-15.3-6.9-15.3-15.3c0-8.5,6.9-15.3,15.3-15.3s15.3,6.9,15.3,15.3S55.1,100.4,46.6,100.4z M75.5,62.5
	c-8.5,0-15.3-6.9-15.3-15.3c0-8.5,6.9-15.3,15.3-15.3c8.4,0,15.3,6.8,15.3,15.3S83.9,62.5,75.5,62.5z M124.6,62.5
	c-8.4,0-15.3-6.9-15.3-15.3c0-8.5,6.9-15.3,15.3-15.3s15.3,6.8,15.3,15.3S133,62.5,124.6,62.5z M153.7,100.4
	c-8.4,0-15.3-6.9-15.3-15.3c0-8.5,6.9-15.3,15.3-15.3c8.5,0,15.3,6.9,15.3,15.3S162.1,100.4,153.7,100.4z"/>
</svg>
