<?xml version="1.0" encoding="utf-8"?>
<!-- Generator: Adobe Illustrator 28.2.0, SVG Export Plug-In . SVG Version: 6.00 Build 0)  -->
<svg version="1.1" id="图层_1" xmlns="http://www.w3.org/2000/svg" xmlns:xlink="http://www.w3.org/1999/xlink" x="0px" y="0px"
	 viewBox="0 0 200 200" style="enable-background:new 0 0 200 200;" xml:space="preserve">
<style type="text/css">
	.st0{fill:#0F4F9A;}
</style>
<path class="st0" d="M0,92.9h21.4v14.3H0V92.9z M178.6,92.9H200v14.3h-21.4V92.9z"/>
<path class="st0" d="M49.4,100c0,27.9,22.7,50.6,50.6,50.6s50.6-22.7,50.6-50.6S127.9,49.4,100,49.4C72.1,49.4,49.4,72.1,49.4,100
	L49.4,100z"/>
<path class="st0" d="M100,185.7c-47.2,0-85.4-38.3-85.4-85.5s38.3-85.4,85.5-85.4s85.4,38.3,85.4,85.5c0,34.3-20.6,65.3-52.2,78.7
	C122.8,183.4,111.4,185.7,100,185.7z M100,25.6c-41,0.1-74.1,33.3-74,74.3s33.3,74.1,74.3,74s74.1-33.3,74-74.3
	C174.2,69.8,156.4,43,129,31.4C119.8,27.5,109.9,25.5,100,25.6L100,25.6z"/>
<path class="st0" d="M92.9,0h14.3v21.4H92.9V0z M92.9,178.6h14.3V200H92.9V178.6z"/>
</svg>
