<?xml version="1.0" encoding="utf-8"?>
<!-- Generator: Adobe Illustrator 28.2.0, SVG Export Plug-In . SVG Version: 6.00 Build 0)  -->
<svg version="1.1" id="图层_1" xmlns="http://www.w3.org/2000/svg" xmlns:xlink="http://www.w3.org/1999/xlink" x="0px" y="0px"
	 viewBox="0 0 200 200" style="enable-background:new 0 0 200 200;" xml:space="preserve">
<style type="text/css">
	.st0{fill:#0F4F9A;}
</style>
<path class="st0" d="M116,92.5c21.5,4.6,46.6,19.8,46.6,63.4c0,11.6-14.6,11.6-61.7,11.6c-47.7,0-61.7,0-61.7-11.6
	c0-43.1,25-58.8,46.6-63.4c-16.9-9.3-22.7-30.8-14.6-48.3s28.5-23.9,44.2-14.6s22.1,30.8,13.4,47.7C125.9,84.3,121.2,89,116,92.5
	L116,92.5z"/>
<path class="st0" d="M67.3,91.8c1.8-0.5,2.3-2.9,0.8-4.1C54.6,77.3,50.4,58,57.8,42.2c1.1-2.3,2.4-4.5,3.9-6.4
	c1.2-1.6,0-3.9-2.1-3.8c-8.7,0.7-17,6.1-21.2,15.2c-5.9,12.6-2.8,27.9,7.7,36.4c1.4,1.2,1,3.5-0.8,4.1c-16.2,5-32.9,18.5-32.9,50.2
	c0,4.9,3,7.2,11.2,8.4c1.3,0.2,2.5-0.8,2.7-2.1C29.5,111.4,48.9,97.2,67.3,91.8z M132.7,91.8c-1.8-0.5-2.3-2.9-0.8-4.1
	c13.5-10.4,17.7-29.6,10.3-45.5c-1.1-2.3-2.4-4.5-3.9-6.4c-1.2-1.6,0-3.9,2.1-3.8c8.8,0.7,17,6.1,21.2,15.2
	c5.9,12.6,2.8,27.9-7.7,36.4c-1.4,1.2-1,3.5,0.8,4.1c16.2,5,32.9,18.5,32.9,50.2c0,4.9-3,7.2-11.2,8.4c-1.3,0.2-2.5-0.8-2.7-2.1
	C170.5,111.4,151.2,97.2,132.7,91.8z"/>
</svg>
