<?xml version="1.0" encoding="utf-8"?>
<!-- Generator: Adobe Illustrator 28.2.0, SVG Export Plug-In . SVG Version: 6.00 Build 0)  -->
<svg version="1.1" id="图层_1" xmlns="http://www.w3.org/2000/svg" xmlns:xlink="http://www.w3.org/1999/xlink" x="0px" y="0px"
	 viewBox="0 0 200 200" style="enable-background:new 0 0 200 200;" xml:space="preserve">
<style type="text/css">
	.st0{fill:#0F4F9A;}
</style>
<path class="st0" d="M173.8,33.6c-3.2-0.2-6,2.2-6.2,5.4c0,0.3,0,0.6,0,0.8v124.1c-0.4,6.6-5.7,11.9-12.3,12.4H47.1
	c-7.4,0-16-6.2-16-12.4V150c0-6.2,7.4-10,14.8-10h103.3c3.2,0.2,6-2.2,6.2-5.4c0-0.3,0-0.6,0-0.8V32.4c0.2-12.2-9.5-22.3-21.7-22.5
	c-1,0-2,0-2.9,0.1H47.1C33.5,10,20,17.5,20,32.4v136.5c2.3,11.4,11.8,20,23.4,21.1h112c13.2,0,24.1-10.4,24.6-23.6V40
	c-0.2-3.3-2.9-6-6.2-6.2L173.8,33.6z M150,152.7H50c-3.4,0-6.2,2.8-6.2,6.2c0,3.4,2.8,6.2,6.2,6.2h100c3.4,0,6.2-2.8,6.2-6.2
	C156.2,155.5,153.4,152.7,150,152.7z"/>
</svg>
