<?xml version="1.0" encoding="utf-8"?>
<!-- Generator: Adobe Illustrator 28.2.0, SVG Export Plug-In . SVG Version: 6.00 Build 0)  -->
<svg version="1.1" id="图层_1" xmlns="http://www.w3.org/2000/svg" xmlns:xlink="http://www.w3.org/1999/xlink" x="0px" y="0px"
	 viewBox="0 0 200 200" style="enable-background:new 0 0 200 200;" xml:space="preserve">
<style type="text/css">
	.st0{fill:#0F4F9A;}
</style>
<path class="st0" d="M86,96.6C86,96.6,86,96.7,86,96.6l7.7,7.7l2.7-2.7l-4.2-4.2l6.6-6.6l0.9,0.1c0.2,0,0.5,0,0.7,0
	c0.5,0,0.9-0.1,1.3-0.2l-4.9-4.9c-0.1-0.1-0.2-0.2-0.3-0.3c1.5-5.4,0.1-11.5-4.1-15.7c-4.2-4.2-10.2-5.6-15.6-4.2l9.1,9.1l-2.4,8.9
	l-9,2.4l-9.1-9.1c-1.5,5.4-0.1,11.4,4.2,15.6C74,97.2,80.4,98.5,86,96.6z M113,102.1c-0.1,0.7-0.2,1.3-0.1,2l0.1,0.9l-5.4,5.3
	l-1.3,1.3l-4.2-4.1l-2.6,2.6l24.1,24.1c1.5,1.5,3.4,2.2,5.4,2.2c1.9,0,3.9-0.7,5.4-2.2c3-3,3-7.8,0-10.8L113,102.1L113,102.1z
	 M131.6,131.7l-3.8,1l-3.1-3.1l1-3.8l3.8-1l3.1,3.1L131.6,131.7L131.6,131.7z M102.2,104.9l4.2,4.2l4.7-4.7
	c-0.3-2.3,0.5-4.7,2.3-6.5c1.8-1.8,4.2-2.5,6.5-2.3L140.5,75l-11.6-11.6l-20.7,20.6c0.3,2.3-0.5,4.7-2.3,6.5
	c-1.8,1.8-4.2,2.5-6.5,2.3l-4.7,4.7l4.2,4.2l-20.4,20.4l-0.7-0.7l-3.9,3.2l-6.6,10.4l1.7,1.7l10.4-6.6l3.2-3.9l-0.8-0.7L102.2,104.9
	L102.2,104.9L102.2,104.9z"/>
<path class="st0" d="M192.9,112.9V87.1l-22.1-8.3c-1.4-4.8-3.4-9.4-5.7-13.8l9.7-21.5l-18.2-18.2L135,35c-4.4-2.4-9-4.3-13.8-5.8
	l-8.3-22H87.1l-8.3,22.1c-4.8,1.4-9.5,3.4-13.8,5.7l-21.5-9.7L25.2,43.5L34.9,65c-2.4,4.4-4.3,9-5.7,13.8L7.1,87.1v25.8l22.1,8.3
	c1.4,4.8,3.4,9.4,5.7,13.8l-9.7,21.5l18.2,18.2L65,165c4.4,2.4,9,4.3,13.8,5.8l8.3,22h25.8l8.3-22.1c4.8-1.4,9.5-3.4,13.8-5.7
	l21.5,9.7l18.2-18.2l-9.7-21.5c2.4-4.4,4.3-9,5.7-13.8L192.9,112.9L192.9,112.9z M40.5,101.5c-0.9-32.8,25.1-60.1,58-61
	c32.8-0.9,60.2,25.1,61.1,57.9c0.9,32.8-25.1,60.1-58,61C68.7,160.3,41.4,134.4,40.5,101.5L40.5,101.5z"/>
</svg>
