<?xml version="1.0" encoding="utf-8"?>
<!-- Generator: Adobe Illustrator 28.2.0, SVG Export Plug-In . SVG Version: 6.00 Build 0)  -->
<svg version="1.1" id="图层_1" xmlns="http://www.w3.org/2000/svg" xmlns:xlink="http://www.w3.org/1999/xlink" x="0px" y="0px"
	 viewBox="0 0 200 200" style="enable-background:new 0 0 200 200;" xml:space="preserve">
<style type="text/css">
	.st0{fill:#0F4F9A;}
</style>
<path class="st0" d="M160.7,79.8c0-33.5-27.2-60.7-60.7-60.7S39.3,46.2,39.3,79.8c0,27.4,18.1,50.5,43.1,58.1l17.7,17.7l17.7-17.7
	C142.6,130.3,160.7,107.1,160.7,79.8z M100,59.2c11.4,0,20.6,9.2,20.6,20.6s-9.2,20.6-20.6,20.6s-20.6-9.2-20.6-20.6
	S88.6,59.2,100,59.2z"/>
<path class="st0" d="M34.8,171.2c0,5.4,29.2,9.8,65.2,9.8c36,0,65.2-4.4,65.2-9.8c0,0,0,0,0,0c0-5.4-29.2-9.8-65.2-9.8
	S34.8,165.8,34.8,171.2C34.8,171.2,34.8,171.2,34.8,171.2z"/>
</svg>
