<?xml version="1.0" encoding="utf-8"?>
<!-- Generator: Adobe Illustrator 28.2.0, SVG Export Plug-In . SVG Version: 6.00 Build 0)  -->
<svg version="1.1" id="图层_1" xmlns="http://www.w3.org/2000/svg" xmlns:xlink="http://www.w3.org/1999/xlink" x="0px" y="0px"
	 viewBox="0 0 200 200" style="enable-background:new 0 0 200 200;" xml:space="preserve">
<style type="text/css">
	.st0{fill:none;stroke:#FF0000;stroke-width:11.3386;stroke-miterlimit:10;}
	.st1{fill:#FF0000;}
</style>
<path class="st0" d="M80.5,88.5H31.6c-3.8,0-7-3.1-7-7V30.8c0-3.8,3.1-7,7-7h48.9c3.8,0,7,3.1,7,7v50.7
	C87.5,85.4,84.4,88.5,80.5,88.5z"/>
<path class="st1" d="M168.2,94.2h-48.9c-7,0-12.6-5.7-12.6-12.6V30.8c0-7,5.7-12.6,12.6-12.6h48.9c7,0,12.6,5.7,12.6,12.6v50.7
	C180.8,88.5,175.2,94.2,168.2,94.2z M119.3,29.5c-0.7,0-1.3,0.6-1.3,1.3v50.7c0,0.7,0.6,1.3,1.3,1.3h48.9c0.7,0,1.3-0.6,1.3-1.3
	V30.8c0-0.7-0.6-1.3-1.3-1.3H119.3z"/>
<path class="st0" d="M80.5,176.1H31.6c-3.8,0-7-3.1-7-7v-50.7c0-3.8,3.1-7,7-7h48.9c3.8,0,7,3.1,7,7v50.7
	C87.5,172.9,84.4,176.1,80.5,176.1z"/>
<path class="st0" d="M143.8,176.1L143.8,176.1c-17.3,0-31.4-14.1-31.4-31.4v-1.8c0-17.3,14.1-31.4,31.4-31.4h0
	c17.3,0,31.4,14.1,31.4,31.4v1.8C175.2,161.9,161,176.1,143.8,176.1z"/>
</svg>
