<?xml version="1.0" encoding="utf-8"?>
<!-- Generator: Adobe Illustrator 28.2.0, SVG Export Plug-In . SVG Version: 6.00 Build 0)  -->
<svg version="1.1" id="图层_1" xmlns="http://www.w3.org/2000/svg" xmlns:xlink="http://www.w3.org/1999/xlink" x="0px" y="0px"
	 viewBox="0 0 200 200" style="enable-background:new 0 0 200 200;" xml:space="preserve">
<style type="text/css">
	.st0{fill:#FF0000;}
</style>
<path d="M35.3,89.5c0.3,2.5,2.4,4.5,5,4.5c1.5,0,3-0.7,3.9-1.9c0.8-1,1.2-2.4,1.1-3.7c-0.2-1.7-0.3-3.3-0.3-5
	c0-14.1,6.3-27.3,17.3-36.3c1-0.8,1.7-2.1,1.8-3.4c0.1-1.3-0.3-2.6-1.1-3.7c-0.9-1.2-2.4-1.8-3.9-1.8c-0.8,0-2,0.2-3.2,1.1
	C42.6,50.2,35,66.3,35,83.4C35,85.4,35.1,87.4,35.3,89.5z"/>
<path class="st0" d="M91.6,161.7c-43.1,0-78.2-35.1-78.2-78.2c0-43.1,35.1-78.2,78.2-78.2c43.1,0,78.2,35.1,78.2,78.2
	C169.8,126.7,134.8,161.7,91.6,161.7z M91.6,16.7c-36.9,0-66.8,30-66.8,66.8s30,66.8,66.8,66.8s66.8-30,66.8-66.8
	S128.5,16.7,91.6,16.7z"/>
<path class="st0" d="M164.9,195.4c-6.4,0-12.7-2.8-17.1-8.1l-31.5-37.2l8.7-7.3l31.6,37.3c3.8,4.7,10.6,5.3,15.2,1.6
	c2.2-1.8,3.6-4.4,3.9-7.2s-0.5-5.7-2.3-7.9l-31.5-37.2l8.7-7.3l31.6,37.3c3.8,4.6,5.5,10.4,4.9,16.2c-0.6,5.9-3.4,11.2-8,14.9
	C174.8,193.8,169.8,195.4,164.9,195.4z"/>
</svg>
