<?xml version="1.0" encoding="utf-8"?>
<!-- Generator: Adobe Illustrator 28.2.0, SVG Export Plug-In . SVG Version: 6.00 Build 0)  -->
<svg version="1.1" id="图层_1" xmlns="http://www.w3.org/2000/svg" xmlns:xlink="http://www.w3.org/1999/xlink" x="0px" y="0px"
	 viewBox="0 0 200 200" style="enable-background:new 0 0 200 200;" xml:space="preserve">
<style type="text/css">
	.st0{fill:#FF0000;}
</style>
<path class="st0" d="M185.6,175.8h-33.1c-7.9,0-14.2-6.4-14.2-14.2v-12.4c0-1.7-1.4-3-3-3H62.3c-1.7,0-3,1.4-3,3v12.4
	c0,7.9-6.4,14.2-14.2,14.2H14.3c-7.9,0-14.2-6.4-14.2-14.2v-52c0-4.9,1.4-9.6,4.2-13.7l0.1-0.1l40.4-57c5.2-7.6,13.7-12.2,22.9-12.2
	h66.7c9.5,0,18.2,4.8,23.3,12.7L196,93.6c2.5,3.9,3.8,8.5,3.8,13.1v54.9C199.8,169.4,193.4,175.8,185.6,175.8z M62.3,134.8h72.9
	c7.9,0,14.4,6.4,14.4,14.4v12.4c0,1.6,1.3,2.9,2.9,2.9h33.1c1.6,0,2.9-1.3,2.9-2.9v-54.9c0-2.4-0.7-4.8-2-6.9l-38.3-54.2
	c-3-4.8-8.2-7.6-13.8-7.6H67.7c-5.5,0-10.5,2.7-13.6,7.2L54,45.3l-40.4,57c-1.4,2.2-2.2,4.7-2.2,7.3v52c0,1.6,1.3,2.9,2.9,2.9h30.7
	c1.6,0,2.9-1.3,2.9-2.9v-12.4C48,141.2,54.4,134.8,62.3,134.8z"/>
<path class="st0" d="M150.5,82.9H47.3c-5.8,0-11-3.5-13.5-8.9c-0.6-1.4-1.8-2.2-3.1-2.2h-0.6L5,66.7c-3.1-0.6-5.1-3.6-4.4-6.7
	C1.2,57,4.2,55,7.2,55.6l24.1,4.9c5.5,0.2,10.5,3.7,12.8,8.9c0.6,1.3,1.8,2.2,3.1,2.2h103.2c0.9,0,1.8-0.4,2.5-1.2l4.1-4.7
	c2.7-3.1,6.5-5,10.5-5.1l25.8-4.9c3.1-0.6,6,1.4,6.6,4.5c0.6,3.1-1.4,6-4.5,6.6l-26.8,5.1h-0.5c-0.9,0-1.8,0.4-2.5,1.2l-4.1,4.7
	C158.8,81.1,154.7,82.9,150.5,82.9z"/>
<path class="st0" d="M78.1,116.5H43.8c-3.1,0-5.7-2.5-5.7-5.7s2.5-5.7,5.7-5.7h34.3c3.1,0,5.7,2.5,5.7,5.7S81.2,116.5,78.1,116.5z"
	/>
<path class="st0" d="M156.2,116.5h-34.3c-3.1,0-5.7-2.5-5.7-5.7s2.5-5.7,5.7-5.7h34.3c3.1,0,5.7,2.5,5.7,5.7
	S159.3,116.5,156.2,116.5z"/>
</svg>
