<?xml version="1.0" encoding="utf-8"?>
<!-- Generator: Adobe Illustrator 28.2.0, SVG Export Plug-In . SVG Version: 6.00 Build 0)  -->
<svg version="1.1" id="图层_1" xmlns="http://www.w3.org/2000/svg" xmlns:xlink="http://www.w3.org/1999/xlink" x="0px" y="0px"
	 viewBox="0 0 200 200" style="enable-background:new 0 0 200 200;" xml:space="preserve">
<style type="text/css">
	.st0{fill:#FF0000;}
</style>
<path class="st0" d="M173.4,34.9c0.4-0.4,0.9-0.9,1.4-1.4c0.5-0.5,1.2-1.1,1.9-1.8c0.6-0.7,1.1-1.4,1.4-2.2c0.3-0.7,0.4-1.5,0.4-2.3
	c0-0.8-0.1-1.5-0.2-2.2c-0.1-0.7-0.3-1.3-0.6-1.8c-0.8-1.7-2-3.4-3.5-5c-1.5-1.6-2.8-2.7-4.1-3.4c-0.6-0.3-1.3-0.5-2.1-0.8
	c-0.8-0.2-1.6-0.4-2.4-0.4c-0.8,0-1.7,0.1-2.6,0.4c-0.9,0.3-1.7,0.7-2.5,1.3c-0.6,0.5-1.4,1.2-2.4,2.1c-1,0.9-1.8,1.7-2.5,2.3
	l16.3,16.3C172.5,35.8,173,35.4,173.4,34.9L173.4,34.9z"/>
<path class="st0" d="M112.2,63.4c-1.3,1.3-2.1,2.1-2.4,2.5c-0.8,0.8-1.4,1.6-1.9,2.2c-0.4,0.7-0.8,1.4-1.2,2.2
	c-0.3,0.5-0.7,1.5-1.1,2.9c-0.5,1.4-1,2.9-1.4,4.6c-0.5,1.6-1,3.2-1.4,4.8c-0.4,1.5-0.7,2.7-0.8,3.5c-0.2,1.5-0.1,2.6,0.4,3.2
	c0.5,0.6,1.6,0.9,3.1,0.7c0.8-0.1,1.9-0.4,3.5-0.8s3.2-0.9,4.9-1.4c1.7-0.5,3.4-1.1,4.9-1.7s2.8-1.1,3.6-1.5
	c0.8-0.4,1.6-0.8,2.4-1.4c0.8-0.6,1.4-1.1,2-1.7c0.2-0.2,1-0.9,2.2-2.1c1.2-1.2,2.8-2.8,4.6-4.7c1.9-1.9,4-4,6.3-6.2l7-7.1
	l18.8-18.8l-16.3-16.4L117,58.5C115.1,60.4,113.5,62.1,112.2,63.4L112.2,63.4z"/>
<path class="st0" d="M156,174.7H37.5c-14,0-25.3-11.4-25.3-25.3V37.6c0-14,11.4-25.3,25.3-25.3h80.7c3.1,0,5.7,2.5,5.7,5.7
	s-2.5,5.7-5.7,5.7H37.5c-7.7,0-14,6.3-14,14v111.7c0,7.7,6.3,14,14,14H156c7.7,0,14-6.3,14-14V80.2c0-3.1,2.5-5.7,5.7-5.7
	s5.7,2.5,5.7,5.7v69.1C181.3,163.3,169.9,174.7,156,174.7z"/>
<path class="st0" d="M143.6,114H49.1c-3.1,0-5.7-2.5-5.7-5.7s2.5-5.7,5.7-5.7h94.5c3.1,0,5.7,2.5,5.7,5.7S146.7,114,143.6,114z"/>
<path class="st0" d="M143.6,143.1H49.1c-3.1,0-5.7-2.5-5.7-5.7s2.5-5.7,5.7-5.7h94.5c3.1,0,5.7,2.5,5.7,5.7S146.7,143.1,143.6,143.1
	z"/>
</svg>
