<?xml version="1.0" encoding="utf-8"?>
<!-- Generator: Adobe Illustrator 28.2.0, SVG Export Plug-In . SVG Version: 6.00 Build 0)  -->
<svg version="1.1" id="图层_1" xmlns="http://www.w3.org/2000/svg" xmlns:xlink="http://www.w3.org/1999/xlink" x="0px" y="0px"
	 viewBox="0 0 200 200" style="enable-background:new 0 0 200 200;" xml:space="preserve">
<style type="text/css">
	.st0{fill:#FF0000;}
</style>
<path d="M100,68.8c3.5,0,6.2-2.8,6.2-6.2V50c0-3.5-2.8-6.2-6.2-6.2c-3.5,0-6.2,2.8-6.2,6.2v12.5C93.8,66,96.5,68.8,100,68.8z
	 M47.2,82.3c-2.8-2-6.7-1.3-8.7,1.5c-2,2.8-1.3,6.7,1.5,8.7c0.1,0,0.1,0.1,0.2,0.1l10.4,7c2.9,1.9,6.7,1.2,8.7-1.7c0,0,0,0,0,0
	c1.9-2.9,1.2-6.7-1.7-8.7C57.6,89.3,47.2,82.3,47.2,82.3z M158.4,82.8c-2.3-2.6-6.2-2.9-8.8-0.6c0,0,0,0,0,0l-9.4,8.2
	c-2.6,2.3-2.9,6.2-0.6,8.8c2.3,2.6,6.2,2.9,8.8,0.6l9.4-8.2C160.4,89.4,160.6,85.4,158.4,82.8C158.4,82.8,158.4,82.8,158.4,82.8
	L158.4,82.8z M118.6,143.8c0-0.5,0.1-1-0.1-1.5l-12.5-50c-0.1-0.3-0.3-0.5-0.4-0.8c-0.2-0.4-0.3-0.8-0.6-1.2
	c-0.2-0.3-0.5-0.6-0.8-0.8c-0.3-0.3-0.6-0.6-0.9-0.8c-0.3-0.2-0.7-0.4-1.1-0.5c-0.3-0.1-0.5-0.3-0.8-0.4c-0.1,0-0.2,0-0.3,0
	c-0.4-0.1-0.8-0.1-1.2-0.1c-0.4,0-0.8,0-1.2,0.1c-0.1,0-0.2,0-0.3,0c-0.3,0.1-0.6,0.3-0.8,0.4c-0.4,0.2-0.7,0.3-1.1,0.5
	c-0.4,0.2-0.7,0.6-1,0.9c-0.3,0.3-0.5,0.5-0.7,0.8c-0.3,0.4-0.4,0.8-0.6,1.2c-0.1,0.3-0.3,0.5-0.4,0.8l-12.5,50
	c-0.1,0.5-0.1,1-0.1,1.5h-0.1c0,0.3,0.1,0.5,0.1,0.8l0,0.3c0.6,9.8,8.7,17.7,18.6,17.7s18.1-7.9,18.6-17.7l0-0.3
	c0-0.3,0.1-0.5,0.1-0.8H118.6z M100,150c-3.3,0-6-2.6-6.2-5.8l6.2-24.7l6.2,24.7C106,147.4,103.3,150,100,150z"/>
<path class="st0" d="M44.3,178.1c-1.4,0-2.8-0.5-3.8-1.5c-17.9-16.5-28.2-40-28.2-64.3c0-48.2,39.2-87.4,87.4-87.4
	c48.2,0,87.4,39.2,87.4,87.4c0,24.3-10.2,47.7-28,64.2c-2.3,2.1-5.9,2-8-0.3c-2.1-2.3-2-5.9,0.3-8c15.5-14.4,24.4-34.7,24.4-55.8
	c0-42-34.1-76.1-76.1-76.1c-42,0-76.1,34.1-76.1,76.1c0,21.2,8.9,41.6,24.5,56c2.3,2.1,2.4,5.7,0.3,8
	C47.4,177.4,45.9,178.1,44.3,178.1z"/>
</svg>
