<?xml version="1.0" encoding="utf-8"?>
<!-- Generator: Adobe Illustrator 28.2.0, SVG Export Plug-In . SVG Version: 6.00 Build 0)  -->
<svg version="1.1" id="图层_1" xmlns="http://www.w3.org/2000/svg" xmlns:xlink="http://www.w3.org/1999/xlink" x="0px" y="0px"
	 viewBox="0 0 200 200" style="enable-background:new 0 0 200 200;" xml:space="preserve">
<style type="text/css">
	.st0{fill:#FF0000;}
</style>
<path class="st0" d="M167.4,196.1H30.8c-10,0-18.1-8.1-18.1-18.1V82.4c0-8.9,4.2-17.5,11.3-22.9l72-55.2c2.1-1.6,4.7-2.5,7.3-2.5
	c2.9,0,5.6,1,7.8,2.9l63.7,54.4c6.8,5.5,10.8,13.7,10.8,22.5v96.3C185.5,187.9,177.4,196.1,167.4,196.1z M103.2,13.1
	c-0.1,0-0.3,0-0.4,0.1l-72,55.2c-4.3,3.3-6.9,8.5-6.9,14v95.6c0,3.7,3,6.8,6.8,6.8h136.6c3.7,0,6.8-3,6.8-6.8V81.6
	c0-5.4-2.4-10.4-6.6-13.7l-0.1-0.1l-63.8-54.5C103.5,13.1,103.4,13.1,103.2,13.1z"/>
<path class="st0" d="M133.2,196.1H65v-60.8c0-18.8,15.3-34.1,34.1-34.1c18.8,0,34.1,15.3,34.1,34.1V196.1z M76.3,184.7h45.5v-49.5
	c0-12.6-10.2-22.8-22.8-22.8c-12.6,0-22.8,10.2-22.8,22.8V184.7z"/>
</svg>
