<?xml version="1.0" encoding="utf-8"?>
<!-- Generator: Adobe Illustrator 28.2.0, SVG Export Plug-In . SVG Version: 6.00 Build 0)  -->
<svg version="1.1" id="图层_1" xmlns="http://www.w3.org/2000/svg" xmlns:xlink="http://www.w3.org/1999/xlink" x="0px" y="0px"
	 viewBox="0 0 200 200" style="enable-background:new 0 0 200 200;" xml:space="preserve">
<style type="text/css">
	.st0{fill:#FF0000;}
</style>
<path d="M163.1,106.4l-16.4-10.9c-2-1.4-4.6-1.1-6.4,0.3l0-0.1l-26,20.8L75.7,90c0,0,0,0,0,0c-0.4-0.3-1-0.5-1.5-0.6
	c-0.2-0.1-0.3-0.2-0.5-0.2c-0.5-0.1-0.9,0-1.4,0c-0.2,0-0.4,0-0.7,0c-0.2,0-0.5,0.2-0.7,0.3c-0.4,0.1-0.9,0.3-1.3,0.5c0,0,0,0-0.1,0
	l-32.8,21.9c-2.5,1.7-3.2,5.1-1.5,7.6c1.1,1.6,2.8,2.4,4.6,2.4c1,0,2.1-0.3,3-0.9l29.7-19.8l84.4,58.1c0.9,0.6,2,1,3.1,1
	c1.7,0,3.4-0.8,4.5-2.4c1.7-2.5,1.1-5.9-1.4-7.6L123.7,123l20.3-16.2l13.1,8.7c0.9,0.6,2,0.9,3,0.9c1.8,0,3.5-0.9,4.6-2.4
	C166.3,111.5,165.6,108.1,163.1,106.4L163.1,106.4z M113.6,83.6c13.6,0,24.6-11,24.6-24.6c0-13.6-11-24.6-24.6-24.6
	C100,34.4,89,45.4,89,59S100,83.6,113.6,83.6z M113.6,45.3c7.5,0,13.7,6.1,13.7,13.7s-6.1,13.7-13.7,13.7c-7.5,0-13.7-6.1-13.7-13.7
	C99.9,51.4,106.1,45.3,113.6,45.3z"/>
<path class="st0" d="M165.8,187.6H34.2c-12.1,0-21.9-9.8-21.9-21.9V34.1c0-12.1,9.8-21.9,21.9-21.9h131.6c12.1,0,21.9,9.8,21.9,21.9
	v131.6C187.7,177.8,177.9,187.6,165.8,187.6z M34.2,23.6c-5.8,0-10.6,4.7-10.6,10.6v131.6c0,5.8,4.7,10.6,10.6,10.6h131.6
	c5.8,0,10.6-4.7,10.6-10.6V34.1c0-5.8-4.7-10.6-10.6-10.6H34.2z"/>
</svg>
