<?xml version="1.0" encoding="utf-8"?>
<!-- Generator: Adobe Illustrator 28.2.0, SVG Export Plug-In . SVG Version: 6.00 Build 0)  -->
<svg version="1.1" id="图层_1" xmlns="http://www.w3.org/2000/svg" xmlns:xlink="http://www.w3.org/1999/xlink" x="0px" y="0px"
	 viewBox="0 0 200 200" style="enable-background:new 0 0 200 200;" xml:space="preserve">
<path d="M115.4,189.6H89.7c-10,0-18.2-8.2-18.2-18.2v-7c0-2.8-1.4-5.3-3.8-6.6c-2.4-1.4-5.3-1.4-7.7,0l-6.1,3.5
	c-8.7,5-19.9,2-24.9-6.7l-12.9-22.3c-2.4-4.2-3.1-9.1-1.8-13.8s4.3-8.6,8.5-11.1l6.1-3.5c2.4-1.4,3.8-3.9,3.8-6.6
	c0-2.8-1.4-5.3-3.8-6.6l-6.1-3.5c-4.2-2.4-7.2-6.4-8.5-11.1c-1.3-4.7-0.6-9.6,1.8-13.8L29,40c2.4-4.2,6.4-7.2,11.1-8.5
	c4.7-1.3,9.6-0.6,13.8,1.8l6.1,3.5c2.4,1.4,5.3,1.4,7.7,0c2.4-1.4,3.8-3.9,3.8-6.6v-7c0-10,8.2-18.2,18.2-18.2h25.7
	c10,0,18.2,8.2,18.2,18.2v7c0,2.8,1.4,5.3,3.8,6.6c2.4,1.4,5.3,1.4,7.7,0l6.1-3.5c8.7-5,19.8-2,24.9,6.7l12.9,22.3
	c5,8.7,2,19.9-6.7,24.9l-6.1,3.5c-2.4,1.4-3.8,3.9-3.8,6.6s1.4,5.3,3.8,6.6l6.1,3.5c4.2,2.4,7.2,6.4,8.5,11.1s0.6,9.6-1.8,13.8
	l-12.9,22.3c-2.4,4.2-6.4,7.2-11.1,8.5c-4.7,1.3-9.6,0.6-13.8-1.8l-6.1-3.5c-2.4-1.4-5.3-1.4-7.7,0c-2.4,1.4-3.8,3.9-3.8,6.6v7
	C133.6,181.4,125.5,189.6,115.4,189.6z M63.8,145.3c3.3,0,6.5,0.9,9.5,2.6c6,3.4,9.5,9.6,9.5,16.5v7c0,3.8,3.1,6.9,6.9,6.9h25.7
	c3.8,0,6.9-3.1,6.9-6.9v-7c0-6.9,3.6-13,9.5-16.5c6-3.4,13.1-3.4,19,0l6.1,3.5c1.6,0.9,3.4,1.2,5.2,0.7c1.8-0.5,3.3-1.6,4.2-3.2
	l12.9-22.3c0.9-1.6,1.2-3.4,0.7-5.2c-0.5-1.8-1.6-3.3-3.2-4.2l-6-3.5c-6-3.4-9.5-9.6-9.5-16.5c0-6.9,3.6-13,9.5-16.5l6.1-3.5
	c3.3-1.9,4.4-6.1,2.5-9.4l-12.9-22.3c-1.9-3.3-6.1-4.4-9.4-2.5l-6.1,3.5c-6,3.4-13.1,3.4-19,0c-6-3.4-9.5-9.6-9.5-16.5v-7
	c0-3.8-3.1-6.9-6.9-6.9H89.7c-3.8,0-6.9,3.1-6.9,6.9v7c0,6.9-3.6,13-9.5,16.5c-6,3.4-13.1,3.4-19,0l-6.1-3.5
	c-1.6-0.9-3.4-1.2-5.2-0.7c-1.8,0.5-3.3,1.6-4.2,3.2L26,67.9c-0.9,1.6-1.2,3.4-0.7,5.2c0.5,1.8,1.6,3.3,3.2,4.2l6.1,3.5
	c6,3.4,9.5,9.6,9.5,16.5c0,6.9-3.6,13-9.5,16.5l-6.1,3.5c-1.6,0.9-2.7,2.4-3.2,4.2c-0.5,1.8-0.2,3.6,0.7,5.2l12.9,22.3
	c1.9,3.3,6.1,4.4,9.4,2.5l6.1-3.5C57.3,146.2,60.5,145.3,63.8,145.3z"/>
<path d="M102.6,138.4c-22.7,0-41.2-18.5-41.2-41.2c0-22.7,18.5-41.2,41.2-41.2c22.7,0,41.2,18.5,41.2,41.2
	C143.7,120,125.3,138.4,102.6,138.4z M102.6,67.4c-16.5,0-29.8,13.4-29.8,29.8s13.4,29.8,29.8,29.8s29.8-13.4,29.8-29.8
	S119,67.4,102.6,67.4z"/>
</svg>
