<?xml version="1.0" encoding="utf-8"?>
<!-- Generator: Adobe Illustrator 28.2.0, SVG Export Plug-In . SVG Version: 6.00 Build 0)  -->
<svg version="1.1" id="图层_1" xmlns="http://www.w3.org/2000/svg" xmlns:xlink="http://www.w3.org/1999/xlink" x="0px" y="0px"
	 viewBox="0 0 200 200" style="enable-background:new 0 0 200 200;" xml:space="preserve">
<style type="text/css">
	.st0{fill:#0F4F9A;}
</style>
<path class="st0" d="M59.8,92.8c0,2.5-2.1,4.6-4.6,4.6c-2.5,0-4.5-2-4.5-4.5c0,0,0,0,0,0c0-3.4,0.6-6.7,1.8-9.8l0.1-0.4
	c1.1-3,2.9-5.7,5.1-8c2.2-2.4,4.8-4.4,7.8-5.8c3-1.2,6.2-1.9,9.4-1.9c7.3-0.1,14.3,3.2,18.7,9c4.8,6.2,6.1,14.4,3.5,21.8
	c-2.9,7.2-9,12.7-16.5,14.8c-5,1.6-9.9,3.8-14.4,6.5c-1.9,1.3-3.6,2.9-4.9,4.8h33.1c2.5,0,4.6,2,4.6,4.5c0,0,0,0,0,0
	c0,2.6-2,4.6-4.6,4.7H55.1c-2.5-0.1-4.6-2.2-4.5-4.7v-0.7c0.9-6.7,4.7-12.6,10.5-16.1c5.2-3.3,10.8-5.8,16.6-7.7
	c4.9-1.3,8.9-4.8,10.8-9.4c0.8-2.2,1-4.5,0.6-6.8c-0.4-2.3-1.3-4.5-2.8-6.3c-2.7-3.5-7-5.6-11.5-5.4c-2,0-3.9,0.4-5.7,1.3
	c-1.9,0.8-3.6,2-4.9,3.5c-1.4,1.5-2.5,3.2-3.3,5.1v0.4C60.1,88.4,59.7,90.6,59.8,92.8L59.8,92.8z M184.6,104.6h-13.3
	c-2.5,0-4.6-2-4.6-4.5c0,0,0,0,0-0.1c0-2.5,2.1-4.5,4.6-4.5c0,0,0,0,0,0h18c7.7,0,10.8,1.4,10.6,8.6c-0.5,11.7-3.1,23.3-7.6,34.2
	l-0.2,0.4c-5,12-12.3,22.9-21.5,32.1c-18.7,18.8-44.2,29.3-70.7,29.2c-13.1,0.1-26.2-2.5-38.3-7.6l-0.4-0.1
	C10.7,170.9-13.3,112.7,7.7,61.8l0.2-0.5c5-12,12.3-22.8,21.5-32C38.6,20,49.6,12.6,61.8,7.6c24.5-10.2,52-10.2,76.5,0l0.4,0.2
	c6.3,2.7,12.4,6,18,9.9L156.2,8c-0.2-4.2,2.9-7.7,7.1-8c0,0,0,0,0.1,0c4.2-0.2,7.7,3,8,7.2l1.5,26.5c0.3,2.3-0.5,4.7-2.2,6.4
	c-1.4,1.5-3.4,2.3-5.5,2.2l-26.6,1.6c-4.2,0.1-7.7-3.1-8-7.2c-0.2-4.2,3.1-7.8,7.2-8l7.3-0.4c-4-2.5-8.1-4.7-12.4-6.5l-0.4-0.1
	c-8.8-3.7-18.3-5.8-27.8-6.3v13.3c0,2.5-2,4.6-4.5,4.6c0,0,0,0,0,0c-2.5,0-4.5-2.1-4.6-4.6V15.4c-9.6,0.4-19,2.6-27.8,6.3
	c-2.1,0.8-4.1,1.7-6,2.8l2.4,3.9c1.4,2,0.9,4.9-1.1,6.3c-2,1.4-4.9,0.9-6.3-1.1c-0.2-0.2-0.3-0.5-0.4-0.8l-2.4-3.9
	c-4.9,3.3-9.5,7-13.7,11.1c-4.1,4.2-7.9,8.7-11.1,13.6l4,2.3c2.1,1.3,2.9,4,1.7,6.2c-1.2,2.2-3.9,2.9-6.1,1.7c0,0-0.1-0.1-0.1-0.1
	l-4-2.4c-0.9,1.9-1.8,3.8-2.6,5.8l-0.2,0.3c-3.6,8.9-5.7,18.3-6.3,27.9h13.4c2.5,0,4.5,2,4.5,4.4c0,0,0,0,0,0c0,2.5-1.9,4.6-4.4,4.6
	c0,0,0,0,0,0H15.5c0.6,11.8,3.7,23.3,9.1,33.9l3.9-2.4c2.2-1.2,5-0.5,6.3,1.7c1.3,2.1,0.5,4.9-1.6,6.2c0,0,0,0,0,0l-3.9,2.4
	c3.2,4.9,6.9,9.5,11.1,13.7c4.1,4.2,8.7,7.9,13.6,11.1l2.4-4.1c1.3-2.2,4.1-2.9,6.2-1.6c0,0,0,0,0,0c2.1,1.2,2.8,3.9,1.6,6.1
	l-2.4,4.2c1.8,0.9,3.8,1.7,5.7,2.6l0.4,0.1c8.9,3.6,18.3,5.7,27.8,6.3v-13.3c0-2.5,2-4.6,4.6-4.6c0,0,0,0,0,0c2.5,0,4.5,1.9,4.5,4.4
	c0,0.1,0,0.1,0,0.2v13.3c11.8-0.5,23.3-3.6,33.8-9.1l-2.3-4.1c-1-2.3,0-5,2.3-6c2-0.9,4.3-0.2,5.6,1.5l2.3,4
	c4.9-3.2,9.5-6.9,13.6-11.1c4.2-4.2,7.9-8.8,11.2-13.6l-4.1-2.4c-2.1-1.2-2.9-3.8-1.8-6c0-0.1,0.1-0.1,0.1-0.2
	c1.3-2.1,4-2.9,6.2-1.7l4,2.4c0.9-1.9,1.8-3.8,2.6-5.7l0.2-0.3C182.1,123.5,184.2,114.1,184.6,104.6L184.6,104.6z M129.4,69.3
	c0.8-1.4,2.3-2.3,3.9-2.3c2.5,0,4.6,2,4.6,4.5V110h6.9c2.5,0,4.5,2,4.5,4.4c0,0,0,0.1,0,0.1c0,2.5-2,4.6-4.5,4.6c0,0,0,0,0,0H138
	v9.4c0,2.6-2.1,4.7-4.6,4.7c-2.5-0.1-4.6-2.2-4.5-4.7v-9.4h-23.3c-2.5,0-4.5-2.1-4.5-4.6c0-1,0.3-2,0.9-2.8L129.4,69.3L129.4,69.3z
	 M128.8,110V87l-15,23.1L128.8,110z"/>
</svg>
