<?xml version="1.0" encoding="utf-8"?>
<!-- Generator: Adobe Illustrator 28.2.0, SVG Export Plug-In . SVG Version: 6.00 Build 0)  -->
<svg version="1.1" id="图层_1" xmlns="http://www.w3.org/2000/svg" xmlns:xlink="http://www.w3.org/1999/xlink" x="0px" y="0px"
	 viewBox="0 0 200 200" style="enable-background:new 0 0 200 200;" xml:space="preserve">
<style type="text/css">
	.st0{fill:#0F4F9A;}
	.st1{fill:#FFFFFF;}
</style>
<polygon class="st0" points="99.9,74.9 90.1,87.4 99.9,87.4 "/>
<path class="st0" d="M54.5,136.4c5.2-5.1,11.8-10,17.5-13.2c9.7-5.4,17.9-6,24.3-2c5.3,3.3,8.5,8.8,11.7,14.1
	c0.3,0.5,0.6,0.9,0.8,1.4c3.8-2.6,8.2-6.3,12.4-10.3c4.7-4.5,8.7-9,11.6-13c0.3-0.5,0.6-0.9,0.9-1.3c-5.2-3.1-11.5-7-15.1-13.7
	c-1.1-2.1-1.7-4.2-1.9-6.3v4.2h-5.3v8.7H99.9v-8.7H80.7v-9.6l19.4-22.9h11.2v23.5h5.3v1c0.7-7.2,5.2-14.4,9.6-20.4
	c5.5-7.4,12.2-14.5,15.9-17.6c1.4-1.1,3.9-2.9,7.5-3.9c-14-18.3-36-30.2-60.8-30.2c-42.2,0-76.4,34.2-76.4,76.4
	c0,25.1,12.1,47.4,30.8,61.3c0.6-3.1,2-6.3,4.3-9.6C49.3,141.8,51.6,139.3,54.5,136.4z M48.7,93.4c1.8-1.8,4.8-4.1,8.9-6.9
	c6.1-3.8,9-7.2,8.7-10.1c-0.3-2.4-1.9-3.8-4.8-4.1c-4.1,0.2-6.1,2.7-5.9,7.8h-11c0-11.3,5.8-16.9,17.4-16.9
	c10.8,0.3,16.4,4.7,16.7,13.3c0,4.4-3.2,8.7-9.6,12.8c-0.6,0.5-1.1,0.8-1.4,0.9c-1.1,0.8-2.7,1.8-5,3c-1.7,0.8-2.8,1.4-3.4,1.8h19.2
	V105H43.7C43.4,101.1,45.1,97.2,48.7,93.4z"/>
<path class="st0" d="M185.8,77.7L185.8,77.7c-0.9-5.4-5.8-11.6-8.6-14.7c-3.6-4-9.2-9.3-15.6-11.7c-8.4-3.2-14.1,0.1-16.8,2.3
	c-3.6,3-10,9.8-15.2,16.9c-8.5,11.6-10.8,19.6-7.4,26c3.1,5.9,9.1,9.4,13.9,12.3c1.1,0.6,2.2,1.3,3.1,1.9c-0.6,1.2-1.5,2.9-3.2,5.2
	c-3,4.2-7.1,8.9-12.1,13.6c-4.5,4.3-9.3,8.3-13.4,11.1c-1.4,0.9-2.5,1.6-3.3,2.1c-1-1.4-2-3.2-3.2-5.1c-3-5.1-5.9-9.9-10.3-12.7
	c-7.6-4.8-17,0.4-20,2.1c-5.4,3-11.6,7.6-16.6,12.5c-2.7,2.6-4.8,5-6.4,7.3c-2.6,3.7-3.8,7-3.8,10.3c0,8,6.9,17.2,13.4,23.1
	c4.4,4.1,11.2,8.9,18.4,8.9c0.5,0,1,0,1.4-0.1c17-1.6,33.1-7,47.8-16.2c12.7-7.9,24-18.2,33.6-30.6c8.3-10.8,15-22.7,19.4-34.4
	C185.5,96.1,187.1,85.7,185.8,77.7z"/>
<path class="st1" d="M48,143.7c0.2-0.3,0.4-0.5,0.6-0.8C33.4,131,23.5,112.4,23.5,91.6c0-35.9,29.2-65.1,65.1-65.1
	c21,0,39.7,10,51.6,25.5c0.3-0.2,0.5-0.5,0.7-0.7C128.9,35.6,110,25.5,88.7,25.5c-36.5,0-66.1,29.7-66.1,66.1
	C22.5,112.8,32.5,131.6,48,143.7z"/>
</svg>
